<?xml version="1.0" encoding="UTF-8"?>
<svg id="Layer_1" data-name="Layer 1" xmlns="http://www.w3.org/2000/svg" version="1.1" viewBox="0 0 800 800">
  <defs>
    <style>
      .cls-1 {
        fill: #fff;
        font-family: MyriadPro-Regular, 'Myriad Pro';
        font-size: 36px;
        opacity: .9;
      }

      .cls-2 {
        fill: #ecede2;
      }

      .cls-2, .cls-3, .cls-4, .cls-5 {
        stroke-width: 0px;
      }

      .cls-3 {
        fill: #e22929;
      }

      .cls-4 {
        fill: #0ca342;
      }

      .cls-5 {
        fill: #5b4f3f;
      }
    </style>
  </defs>
  <path class="cls-5" d="M400.9,116.1c-156.8,0-283.9,127.1-283.9,283.9s127.1,283.9,283.9,283.9,283.9-127.1,283.9-283.9c0-156.8-127.1-283.9-283.9-283.9Z"/>
  <circle class="cls-4" cx="400.9" cy="400" r="23.5"/>
  <g>
    <path class="cls-3" d="M400.9,188.2c-11.1,0-22.1.9-32.7,2.5l2,13.5c10-1.6,20.3-2.4,30.7-2.4s20.5.8,30.5,2.3l2.1-13.5c-10.6-1.6-21.5-2.5-32.6-2.5Z"/>
    <path class="cls-3" d="M431.6,595.8c-10,1.6-20.3,2.4-30.7,2.4s-20.9-.8-30.9-2.4l-2,13.5c10.7,1.7,21.8,2.6,33,2.6s22.1-.9,32.8-2.5l-2.1-13.5Z"/>
  </g>
  <g>
    <path class="cls-4" d="M496.3,210.8c-19.2-9.7-40.1-16.6-62.2-20-.2,0-.4,0-.7-.1l-2.1,13.5c.2,0,.3,0,.5,0,20.6,3.2,40.2,9.7,58.2,18.8.2,0,.3.2.5.2l6.3-12.2c-.2-.1-.4-.2-.6-.3Z"/>
    <path class="cls-4" d="M369.4,595.6c-20.8-3.3-40.5-9.9-58.6-19.1-.2,0-.3-.2-.5-.2l-6.3,12.2c.2.1.4.2.6.3,19.3,9.9,40.4,16.8,62.5,20.4.2,0,.5,0,.7.1l2-13.5c-.2,0-.3,0-.5,0Z"/>
  </g>
  <g>
    <path class="cls-3" d="M496.9,211.1l-6.3,12.2c18.4,9.4,35.1,21.5,49.6,35.9l9.6-9.7c-15.5-15.3-33.3-28.3-53-38.3Z"/>
    <path class="cls-3" d="M260.6,539.9l-9.6,9.8c15.5,15.5,33.4,28.6,53.1,38.8l6.3-12.2c-18.5-9.5-35.2-21.8-49.7-36.4Z"/>
  </g>
  <g>
    <path class="cls-4" d="M589,302.5c-10.1-19.5-23.2-37.3-38.7-52.7-.1-.1-.3-.3-.4-.4l-9.6,9.7c.1.1.2.2.3.3,14.5,14.4,26.8,31.1,36.3,49.4.1.3.3.6.5.9l12.3-6.1c-.2-.4-.4-.7-.6-1.1Z"/>
    <path class="cls-4" d="M260.3,539.6c-14.5-14.6-26.7-31.4-36.1-49.9-.1-.3-.3-.6-.4-.9l-12.2,6.1c.2.4.4.7.5,1.1,10,19.7,23.1,37.6,38.5,53.2.1.1.3.3.4.5l9.6-9.8c-.1-.1-.2-.2-.3-.3Z"/>
  </g>
  <g>
    <path class="cls-3" d="M589.6,303.6l-12.3,6.1c9.2,18,15.8,37.6,19.1,58.3l13.5-2.2c-3.6-22.1-10.6-43-20.4-62.2Z"/>
    <path class="cls-3" d="M205.1,430.2l-13.5,2.2c3.4,22.2,10.2,43.2,20,62.5l12.2-6.1c-9.1-18.1-15.5-37.8-18.7-58.6Z"/>
  </g>
  <g>
    <path class="cls-4" d="M610.1,366.3c0-.2,0-.4,0-.6l-13.5,2.2c0,.1,0,.3,0,.4,1.7,10.3,2.5,20.9,2.5,31.6s-.8,20.1-2.2,29.8c0,.1,0,.3,0,.4l13.5,2.2c0-.2,0-.4,0-.6,1.6-10.4,2.4-21,2.4-31.9s-.9-22.7-2.7-33.7Z"/>
    <path class="cls-4" d="M205.4,368l-13.5-2.2c0,.2,0,.4,0,.6-1.8,11-2.7,22.2-2.7,33.7s.8,21.5,2.4,31.9c0,.2,0,.4,0,.6l13.5-2.2c0-.1,0-.3,0-.4-1.5-9.7-2.2-19.7-2.2-29.8s.9-21.3,2.5-31.6c0-.1,0-.3,0-.4Z"/>
  </g>
  <g>
    <path class="cls-3" d="M596.8,430.2c-3.2,20.8-9.6,40.5-18.7,58.6l12.2,6.1c9.7-19.3,16.6-40.3,20-62.5l-13.5-2.2Z"/>
    <path class="cls-3" d="M212.3,303.6c-9.8,19.2-16.8,40.1-20.4,62.2l13.5,2.2c3.4-20.7,9.9-40.3,19.1-58.3l-12.3-6.1Z"/>
  </g>
  <g>
    <path class="cls-4" d="M578.1,488.8c0,.2-.2.4-.3.6-9.4,18.5-21.6,35.3-36,49.9-.1.1-.3.3-.4.4l9.6,9.7c.2-.2.3-.4.5-.5,15.4-15.6,28.4-33.5,38.4-53.3.1-.2.2-.5.4-.8l-12.2-6.1Z"/>
    <path class="cls-4" d="M251.8,249.6c-.2.2-.3.3-.5.5-15.4,15.4-28.5,33.2-38.6,52.8-.1.2-.3.5-.4.7l12.3,6.1c0-.2.2-.4.3-.6,9.5-18.3,21.7-35,36.2-49.4.1-.1.3-.3.4-.4l-9.6-9.7Z"/>
  </g>
  <g>
    <path class="cls-3" d="M541.4,539.7c-14.5,14.6-31.3,26.9-49.7,36.4l6.3,12.2c19.7-10.2,37.5-23.3,53-38.8l-9.6-9.7Z"/>
    <path class="cls-3" d="M304.7,211.2c-19.6,10-37.4,23-52.9,38.3l9.6,9.7c14.5-14.4,31.2-26.5,49.6-35.9l-6.3-12.1Z"/>
  </g>
  <g>
    <path class="cls-4" d="M491.7,576.2c-.2.1-.4.2-.7.3-18.1,9.3-37.8,15.8-58.6,19.1-.2,0-.5,0-.7.1l2.1,13.5c.3,0,.6,0,.9-.1,22.2-3.5,43.2-10.5,62.5-20.4.3-.1.6-.3.8-.4l-6.3-12.2Z"/>
    <path class="cls-4" d="M368.2,190.7c-.2,0-.3,0-.5,0-22,3.5-42.9,10.3-62.2,20-.3.1-.6.3-.8.4l6.3,12.1c.2-.1.4-.2.7-.3,18-9.1,37.6-15.5,58.2-18.8,0,0,.2,0,.3,0l-2-13.5Z"/>
  </g>
  <g>
    <path class="cls-5" d="M400.9,201.9c-10.4,0-20.7.8-30.7,2.4l2.8,18.8,6.7,44.6c6.7-1,14.2-1.7,21.2-1.7s13.8.5,20.5,1.6l4.1-24.9,5.9-38.5c-9.9-1.5-20.1-2.3-30.5-2.3Z"/>
    <path class="cls-5" d="M421.9,532.4c-6.9,1.1-13.9,1.6-21,1.6s-14.2-.6-21.1-1.7l-3.8,23.3-6,40.1c10.1,1.6,20.4,2.4,30.9,2.4s20.7-.8,30.7-2.4l-9.7-63.4Z"/>
    <path class="cls-5" d="M490.6,223.3l-18.4,35.5-10.8,21.6c12.4,6.3,23.7,14.5,33.6,24.1l20.2-20,25.1-25.4c-14.5-14.4-31.2-26.5-49.6-35.9Z"/>
  </g>
  <path class="cls-2" d="M490.1,223.1c-18-9.1-37.6-15.5-58.2-18.8-.2,0-.3,0-.5,0l-5.9,38.5-4.1,24.9c.1,0,.2,0,.3,0,14,2.2,27.2,6.5,39.4,12.6,0,0,.2,0,.3.1l10.8-21.6,18.4-35.5c-.2,0-.3-.2-.5-.2Z"/>
  <path class="cls-5" d="M305.8,494.4l-19.4,19.2-25.8,26.3c14.5,14.6,31.3,26.9,49.7,36.4l19-36.8,10.1-20.3c-12.5-6.5-23.9-14.8-33.7-24.7Z"/>
  <g>
    <path class="cls-2" d="M379.5,532.3c-14.1-2.3-27.5-6.7-39.8-13,0,0-.2,0-.3-.1l-10.1,20.3-19,36.8c.2,0,.3.2.5.2,18.1,9.3,37.8,15.8,58.6,19.1.2,0,.3,0,.5,0l6-40.1,3.8-23.3c0,0-.2,0-.3,0Z"/>
    <path class="cls-2" d="M577.3,309.7c-.1-.3-.3-.6-.5-.9-9.5-18.3-21.8-35-36.3-49.4-.1-.1-.2-.2-.3-.3l-25.1,25.4-20.2,20c0,0,.2.2.3.3,9.9,9.8,18.3,21.1,24.7,33.6h0l57.4-28.6Z"/>
    <path class="cls-2" d="M305.6,494.2c-9.8-10-18.1-21.5-24.5-34.1,0,0,0,0,0,0l-57.3,28.7c.1.3.3.6.4.9,9.4,18.5,21.6,35.3,36.1,49.9.1.1.2.2.3.3l25.8-26.3,19.4-19.2c0,0-.2-.2-.2-.2Z"/>
  </g>
  <g>
    <path class="cls-5" d="M577.3,309.7l-57.4,28.6c6.3,12.2,10.9,25.5,13.2,39.6l31.8-4.8,31.6-5.2c-3.4-20.7-9.9-40.3-19.1-58.3Z"/>
    <path class="cls-5" d="M268.4,420.1l-31.5,4.8-31.9,5.3c3.2,20.8,9.6,40.5,18.7,58.6l57.3-28.7c-6.2-12.3-10.5-25.8-12.7-39.9Z"/>
    <path class="cls-5" d="M564.5,424.9l-31.1-4.8c-2.1,14.1-6.4,27.4-12.6,39.7l14.1,7.3,43.1,21.6c9.1-18.1,15.5-37.8,18.7-58.6l-32.2-5.3Z"/>
  </g>
  <path class="cls-2" d="M596.5,368.4c0-.1,0-.3,0-.4l-31.6,5.2-31.8,4.8c0,.1,0,.3,0,.4,1.2,7.1,1.8,14.3,1.8,21.7s-.5,13.3-1.5,19.7c0,.1,0,.3,0,.4l31.1,4.8,32.2,5.3c0-.1,0-.3,0-.4,1.5-9.7,2.2-19.7,2.2-29.8,0-10.8-.9-21.3-2.5-31.6Z"/>
  <path class="cls-5" d="M267.1,330.9l-42.6-21.2c-9.2,18-15.8,37.6-19.1,58.3l32,5.2,31.4,4.7c2.3-14,6.8-27.2,13.1-39.4l-14.7-7.6Z"/>
  <path class="cls-2" d="M268.7,377.9l-31.4-4.7-32-5.2c0,.1,0,.3,0,.4-1.7,10.3-2.5,20.9-2.5,31.6s.8,20.1,2.2,29.8c0,.1,0,.3,0,.4l31.9-5.3,31.5-4.8c0-.1,0-.3,0-.4-.9-6.4-1.4-13-1.4-19.7s.6-14.6,1.8-21.7c0-.1,0-.3,0-.4Z"/>
  <path class="cls-5" d="M511.4,509.4l-15.3-15.1c-9.9,10-21.3,18.4-33.8,24.9l4.7,9.4,24.6,47.6c18.4-9.5,35.2-21.9,49.7-36.4l-29.9-30.4Z"/>
  <path class="cls-2" d="M535,467.2l-14.1-7.3c0,0,0,.1,0,.2-6.3,12.6-14.6,24.1-24.4,34,0,0-.1.1-.2.2l15.3,15.1,29.9,30.4c.1-.1.3-.3.4-.4,14.4-14.6,26.6-31.4,36-49.9,0-.2.2-.4.3-.6l-43.1-21.6Z"/>
  <path class="cls-5" d="M335.1,269.7l-24.1-46.3c-18.4,9.4-35.1,21.5-49.6,35.9l29.2,29.5,16.1,15.9c9.9-9.7,21.2-18,33.7-24.3l-5.3-10.6Z"/>
  <g>
    <path class="cls-2" d="M290.6,288.8l-29.2-29.5c-.1.1-.3.3-.4.4-14.5,14.4-26.7,31.1-36.2,49.4,0,.2-.2.4-.3.6l42.6,21.2,14.7,7.6c0,0,0-.1.1-.2,6.5-12.4,14.8-23.7,24.6-33.5,0,0,.1-.1.2-.2l-16.1-15.9Z"/>
    <path class="cls-2" d="M467,528.6l-4.7-9.4s0,0-.1,0c-12.4,6.4-25.9,10.9-40.2,13.2,0,0,0,0,0,0l9.7,63.4c.2,0,.5,0,.7-.1,20.8-3.3,40.5-9.9,58.6-19.1.2-.1.4-.2.7-.3l-24.6-47.6Z"/>
    <path class="cls-2" d="M373,223l-2.8-18.8c0,0-.2,0-.3,0-20.6,3.2-40.2,9.7-58.2,18.8-.2.1-.4.2-.7.3l24.1,46.3,5.3,10.6s0,0,.1,0c12.1-6.1,24.6-10.3,38.5-12.5.2,0,.5,0,.7-.1l-6.7-44.6Z"/>
  </g>
  <g>
    <polygon class="cls-4" points="519.9 338.3 519.9 338.3 519.9 338.3 519.9 338.3"/>
    <polygon class="cls-4" points="281.1 460 281.1 460.1 281.8 459.7 281.1 460"/>
  </g>
  <path class="cls-3" d="M421,526.3l-.4-2.4c-6.4,1-13,1.5-19.7,1.5s-13.5-.5-19.9-1.5l-1.2,8.5c6.9,1.1,13.9,1.7,21.1,1.7s14.2-.6,21-1.6l-.9-6.1Z"/>
  <g>
    <path class="cls-4" d="M421.7,267.6c-.1,0-.2,0-.3,0l-1.4,8.5c.1,0,.3,0,.4,0,13,2,25.3,6.1,36.7,11.8l4.3-7.6c-12.2-6.1-25.7-10.6-39.6-12.8Z"/>
    <path class="cls-4" d="M343.7,511.6c-.1,0-.2-.1-.4-.2l-3.9,7.8c0,0,.2,0,.3.1,12.3,6.3,26,10.8,40.1,13.1l1.2-8.5c-13.2-2.1-25.8-6.4-37.3-12.3Z"/>
    <path class="cls-4" d="M494.9,304.5l-5.8,6.4c9.2,9.1,17,19.7,23.1,31.3l7.7-3.9h0c-6.5-12.5-15.1-24-25-33.8Z"/>
  </g>
  <path class="cls-3" d="M461.3,280.4c0,0-4.3,7.6-4.3,7.6.1,0,.3.1.4.2,11.6,5.9,22.1,13.5,31.3,22.5.1.1.2.2.3.3,0,0,5.9-6.3,5.8-6.4-9.8-9.7-21.1-17.8-33.6-24.1Z"/>
  <path class="cls-4" d="M288.8,456.2l-7,3.5-.7.4c6.4,12.6,14.9,24.4,24.7,34.4l5.8-6.4c-9.2-9.3-16.9-20-22.8-31.8Z"/>
  <path class="cls-3" d="M312,488.3c-.1-.1-.2-.2-.3-.3,0,0-5.9,6.3-5.8,6.4,9.8,9.9,21.2,18.3,33.7,24.7l3.9-7.8c-11.7-6-22.2-13.8-31.4-23.1Z"/>
  <g>
    <path class="cls-4" d="M512.2,342.2s0,0,0,.1l7.7-4-7.7,3.9Z"/>
    <path class="cls-4" d="M288.8,456.1l-6.9,3.6,7-3.5s0,0,0-.1Z"/>
  </g>
  <g>
    <path class="cls-3" d="M519.9,338.3h0s-7.7,4-7.7,4c5.9,11.4,10.1,23.8,12.3,36.9,0,.2,0,.3,0,.5,0,0,8.5-1.7,8.5-1.8-2.3-14.1-6.8-27.4-13.2-39.6Z"/>
    <path class="cls-3" d="M276.9,418.3s-8.5,1.7-8.5,1.8c2.1,14.2,6.5,27.6,12.7,39.9l.8-.4,6.9-3.6c-5.8-11.5-9.9-24.5-11.9-37.7Z"/>
  </g>
  <path class="cls-4" d="M533.1,377.9l-8.5,1.8c1.1,6.6,1.6,13.4,1.6,20.3s-.5,12.3-1.3,18.3c0,.2,0,.3,0,.5l8.6,1.3c0-.1,0-.3,0-.4,1-6.4,1.5-13,1.5-19.7,0-7.4-.7-15-1.8-22.1Z"/>
  <path class="cls-3" d="M281.8,338.5c-6.3,12.2-10.8,25.4-13.1,39.4l8.6,1.3c2.2-13,6.5-25.7,12.4-37l-7.9-3.7Z"/>
  <path class="cls-4" d="M277.3,379.2l-8.6-1.3c0,.1,0,.3,0,.4-1.2,7.1-1.8,14.3-1.8,21.7s.6,13.7,1.5,20.1l8.5-1.8c-.9-6-1.3-12.1-1.3-18.3s.6-13.7,1.6-20.3c0-.2,0-.3,0-.5Z"/>
  <g>
    <path class="cls-3" d="M524.9,418.8c-2,13.1-6,25.6-11.7,37.1,0,0,0,.2-.1.3,0,0,7.8,3.8,7.8,3.7,6.1-12.3,10.5-25.7,12.6-39.7l-8.6-1.3Z"/>
    <path class="cls-3" d="M281.8,338.5l7.7,4c0-.1.1-.2.2-.3,0,0-7.8-3.7-7.9-3.7Z"/>
    <path class="cls-3" d="M490,488.2c-9.2,9.3-20.1,17.3-31.8,23.3l4.1,7.6c12.6-6.5,24-14.9,33.8-24.9l-6.2-6.1Z"/>
  </g>
  <g>
    <path class="cls-4" d="M513,456.2c-5.9,11.8-13.6,22.4-22.7,31.7,0,0-.2.2-.3.3l6.2,6.1c0,0,.1-.1.2-.2,9.8-9.9,18.2-21.6,24.5-34.2l-7.8-3.7Z"/>
    <path class="cls-4" d="M306.7,304.6c0,0-.1.1-.2.2-9.8,9.8-18.3,21.2-24.7,33.7l7.9,3.7c6-11.6,13.8-22.1,23-31.2,0,0,.2-.2.3-.3l-6.2-6.1Z"/>
    <path class="cls-4" d="M420.6,523.8s0,0,0,0l.4,2.4-.4-2.5Z"/>
    <path class="cls-4" d="M458.2,511.5c-11.6,6-24.2,10.2-37.6,12.3l.4,2.5,1,6.1c14.3-2.3,27.8-6.8,40.2-13.2,0,0,0,0,.1,0,0,0-4-7.7-4.1-7.6Z"/>
    <path class="cls-4" d="M379.7,267.7c-13.9,2.2-27.2,6.6-39.3,12.7l4.1,7.6c11.3-5.7,23.5-9.7,36.4-11.8l-1.3-8.6Z"/>
  </g>
  <g>
    <path class="cls-3" d="M400.9,266c-7,0-14.5.6-21.2,1.7-.2,0,1.3,8.6,1.3,8.6.3,0,.5,0,.8-.1,6.2-.9,12.6-1.4,19.1-1.4s12.8.5,19.1,1.4l1.4-8.5c-6.7-1-13.5-1.6-20.5-1.6Z"/>
    <path class="cls-3" d="M340.5,280.4c-12.5,6.3-23.9,14.5-33.7,24.3l6.2,6.1c9.2-9.1,19.8-16.7,31.4-22.6,0,0,.2,0,.3-.1,0,0-4.1-7.6-4.1-7.6Z"/>
  </g>
  <path class="cls-2" d="M420.4,276.2c-.1,0-.3,0-.4,0l-16.7,100.5c.6,0,1.2.2,1.7.3,1.8.3,3.5.8,5.2,1.5l46.9-90.5c-11.4-5.7-23.7-9.7-36.7-11.8Z"/>
  <path class="cls-5" d="M404.2,423.2c-1.1.1-2.1.3-3.2.3s-2.2-.1-3.2-.3c-.6,0-1.1-.2-1.7-.3l-14.9,100.9c.1,0,.3,0,.4,0,6.4,1,12.8,1.4,19.5,1.4s13.3-.5,19.7-1.5l-16.5-100.6Z"/>
  <path class="cls-2" d="M390.4,421c-.5-.3-1-.5-1.5-.8l-45.6,91.2c.1,0,.2.1.4.2,11.5,5.9,24.1,10.2,37.3,12.3l14.9-100.9c-2-.4-3.8-1.1-5.5-2Z"/>
  <g>
    <path class="cls-5" d="M488.7,310.6c-9.2-9-19.7-16.6-31.3-22.5-.1,0-.3-.1-.4-.2l-46.9,90.5c.5.2,1.1.5,1.6.8,1.6.8,3.1,1.9,4.5,3,.4.4.9.8,1.3,1.2l71.6-72.5c-.1-.1-.2-.2-.3-.3Z"/>
    <path class="cls-5" d="M384.3,416.6c-.4-.4-.8-.8-1.2-1.3l-71.5,72.7c.1.1.2.2.3.3,9.2,9.2,19.7,17,31.4,23.1l45.6-91.2c-1.7-1-3.2-2.2-4.6-3.6Z"/>
  </g>
  <g>
    <path class="cls-2" d="M512.2,342.2c-6-11.6-13.9-22.2-23.1-31.3l-71.6,72.5c1.3,1.3,2.4,2.8,3.4,4.3.3.5.6,1,.8,1.5l90.5-46.9s0,0,0-.1Z"/>
    <path class="cls-2" d="M379.9,410.5c-.2-.5-.5-1-.7-1.5l-90.4,47.1s0,0,0,.1c5.9,11.8,13.7,22.5,22.8,31.8l71.5-72.7c-1.3-1.5-2.3-3.1-3.2-4.9Z"/>
  </g>
  <g>
    <path class="cls-5" d="M524.5,379.2c-2.2-13.1-6.4-25.5-12.3-36.9l-90.5,46.9c.9,1.6,1.5,3.4,2,5.2.1.6.3,1.1.4,1.7l100.6-16.4c0-.2,0-.3,0-.5Z"/>
    <path class="cls-5" d="M377.7,403.4c0-.6-.1-1.2-.2-1.7l-100.6,16.6c0,.2,0,.3,0,.5,2,13.2,6,25.7,11.8,37.2l90.4-47.1c-.7-1.8-1.2-3.6-1.5-5.5Z"/>
  </g>
  <g>
    <path class="cls-2" d="M524.6,379.7l-100.6,16.4c.2,1.3.4,2.6.4,3.9s0,1.1,0,1.7c0,.6-.1,1.2-.2,1.7l100.7,15.4c0-.2,0-.3,0-.5.9-6,1.3-12.1,1.3-18.3,0-6.9-.6-13.7-1.6-20.3Z"/>
    <path class="cls-2" d="M378.1,394.4l-100.8-15.2c0,.2,0,.3,0,.5-1.1,6.6-1.6,13.4-1.6,20.3s.5,12.3,1.3,18.3l100.6-16.6c0-.6,0-1.1,0-1.7,0-1.3.1-2.6.4-3.9,0-.6.2-1.2.4-1.7Z"/>
  </g>
  <g>
    <path class="cls-5" d="M424.1,403.4c-.3,1.9-.8,3.8-1.5,5.5-.2.5-.5,1-.7,1.6l91.1,45.7c0,0,0-.2.1-.3,5.7-11.5,9.7-23.9,11.7-37.1l-100.7-15.4Z"/>
    <path class="cls-5" d="M289.7,342.2c0,.1-.1.2-.2.3-5.9,11.3-10,23.7-12.2,36.7l100.8,15.2c.4-1.8,1.1-3.6,1.9-5.2.3-.5.6-1,.9-1.5l-91.3-45.5Z"/>
  </g>
  <g>
    <path class="cls-2" d="M421.9,410.5c-.9,1.7-1.9,3.4-3.2,4.8-.4.4-.8.9-1.2,1.3l72.4,71.6c0,0,.2-.2.3-.3,9.1-9.3,16.8-20,22.7-31.7l-91.1-45.7Z"/>
    <path class="cls-2" d="M312.9,310.7c0,0-.2.2-.3.3-9.2,9.1-16.9,19.6-23,31.2l91.3,45.5c1-1.6,2.1-3,3.4-4.3.4-.4.8-.8,1.3-1.2l-72.7-71.5Z"/>
    <path class="cls-2" d="M411.4,421c-1.9,1-4,1.7-6.2,2.1-.4,0-.7.1-1.1.2l16.5,100.6s0,0,0,0c13.3-2.1,26-6.3,37.6-12.3l-46.8-90.5Z"/>
  </g>
  <path class="cls-5" d="M417.5,416.6c-1.4,1.4-2.9,2.6-4.6,3.6-.5.3-1,.6-1.5.8l46.8,90.5c0,0,.2,0,.2-.1,11.7-6.1,22.3-13.9,31.5-23.2l-72.4-71.6Z"/>
  <path class="cls-2" d="M381,276.2c-12.9,2.1-25.2,6.1-36.4,11.8l47,90.4c1.5-.6,3-1.1,4.6-1.4l-15.2-100.8Z"/>
  <g>
    <path class="cls-5" d="M400.9,274.6c-6.5,0-12.8.5-19.1,1.4-.3,0-.5,0-.8.1l15.2,100.8c.8-.2,1.5-.3,2.3-.4.8,0,1.6-.1,2.4-.1s1.6,0,2.4.1l16.7-100.5c-6.2-.9-12.6-1.4-19.1-1.4Z"/>
    <path class="cls-5" d="M344.6,288c0,0-.2,0-.3.1-11.6,5.9-22.2,13.5-31.4,22.6l72.7,71.5c1.4-1.2,2.9-2.2,4.5-3.1.5-.3,1-.5,1.5-.7l-47-90.4Z"/>
  </g>
  <circle class="cls-3" cx="400.9" cy="400" r="11.2"/>
  <text class="cls-1" transform="translate(379.4 155.9)"><tspan x="0" y="0">20</tspan></text>
  <text class="cls-1" transform="translate(462.7 178.7)"><tspan x="0" y="0">1</tspan></text>
  <text class="cls-1" transform="translate(523.5 217.4)"><tspan x="0" y="0">18</tspan></text>
  <text class="cls-1" transform="translate(578.2 265.6)"><tspan x="0" y="0">4</tspan></text>
  <text class="cls-1" transform="translate(612.7 335.9)"><tspan x="0" y="0">13</tspan></text>
  <text class="cls-1" transform="translate(630.9 406.3)"><tspan x="0" y="0">6</tspan></text>
  <text class="cls-1" transform="translate(612.7 478.7)"><tspan x="0" y="0">10</tspan></text>
  <text class="cls-1" transform="translate(578.2 546.2)"><tspan x="0" y="0">15</tspan></text>
  <text class="cls-1" transform="translate(533.3 603.5)"><tspan x="0" y="0">2</tspan></text>
  <text class="cls-1" transform="translate(464.2 633.9)"><tspan x="0" y="0">17</tspan></text>
  <text class="cls-1" transform="translate(390.1 650)"><tspan x="0" y="0">3</tspan></text>
  <text class="cls-1" transform="translate(312.4 633.9)"><tspan x="0" y="0">19</tspan></text>
  <text class="cls-1" transform="translate(260.1 603.5)"><tspan x="0" y="0">7</tspan></text>
  <text class="cls-1" transform="translate(187 545.5)"><tspan x="0" y="0">16</tspan></text>
  <text class="cls-1" transform="translate(154.9 478.7)"><tspan x="0" y="0">8</tspan></text>
  <text class="cls-1" transform="translate(136.6 412.6)"><tspan x="0" y="0">11</tspan></text>
  <text class="cls-1" transform="translate(146.8 335.9)"><tspan x="0" y="0">14</tspan></text>
  <text class="cls-1" transform="translate(197.5 265.6)"><tspan x="0" y="0">9</tspan></text>
  <text class="cls-1" transform="translate(236.9 210.5)"><tspan x="0" y="0">12</tspan></text>
  <text class="cls-1" transform="translate(310.7 172.8)"><tspan x="0" y="0">5</tspan></text>
</svg>